<svg role="img" viewBox="0 0 24 24" xmlns="http://www.w3.org/2000/svg">
  <title>GitHub</title>
  <path d="M12 0C5.37 0 0 5.37 0 12c0 5.3 3.438 9.8 8.205 11.387.6.113.82-.26.82-.577v-2.234c-3.338.727-4.033-1.416-4.033-1.416-.546-1.387-1.333-1.756-1.333-1.756-1.09-.745.082-.729.082-.729 1.205.084 1.84 1.236 1.84 1.236 1.07 1.835 2.807 1.304 3.492.996.107-.775.42-1.304.763-1.604-2.665-.3-5.467-1.334-5.467-5.933 0-1.31.467-2.38 1.235-3.22-.123-.303-.535-1.523.117-3.176 0 0 1.008-.322 3.3 1.23a11.5 11.5 0 0 1 3.003-.404 11.5 11.5 0 0 1 3.003.404c2.29-1.553 3.297-1.23 3.297-1.23.653 1.653.24 2.873.117 3.176.77.84 1.233 1.91 1.233 3.22 0 4.61-2.807 5.63-5.48 5.922.43.37.814 1.096.814 2.21v3.285c0 .32.218.694.825.576C20.565 21.796 24 17.296 24 12c0-6.63-5.37-12-12-12z"></path>
</svg>
